{"title":"Bellator 145 Prelims 720p WEB-DL x264 -={SPARROW}=-","uid":12709202,"size":2494113596,"categoryP":"video","categoryS":"hd___tv_shows","magnet":"?xt=urn:btih:4552fc517cb26ab413a9cdc4255f6cf008e83f2b&amp;dn=Bellator+145+Prelims+720p+WEB-DL+x264+-%3D%7BSPARROW%7D%3D-&amp;tr=udp%3A%2F%2Ftracker.leechers-paradise.org%3A6969&amp;tr=udp%3A%2F%2Fzer0day.ch%3A1337&amp;tr=udp%3A%2F%2Fopen.demonii.com%3A1337&amp;tr=udp%3A%2F%2Ftracker.coppersurfer.tk%3A6969&amp;tr=udp%3A%2F%2Fexodus.desync.com%3A6969","seeders":0,"leechers":1,"uploader":"CenaCme","files":2,"time":1446880487,"description":"Cheljean Erwin-Davis vs Adam Cella\r\nJeff Crotty vs Garrett Gross\r\nKyle Kurtz vs Steven Mann\r\nJordan Dowdy vs Adam Meredith\r\nAlex Huddleston vs Augusto Sakai\r\nClay Mitchell vs Kain Royer\r\nScott Etling vs Fazlo Mulabitinovic\r\n\r\nGeneral\r\nComplete name                            : Bellator.145.Prelims.720p.WEB-DL.x264.mp4\r\nFormat                                   : MPEG-4\r\nFormat profile                           : Base Media\r\nCodec ID                                 : isom\r\nFile size                                : 2.32 GiB\r\nDuration                                 : 1h 35mn\r\nOverall bit rate mode                    : Variable\r\nOverall bit rate                         : 3 487 Kbps\r\nWriting application                      : Lavf56.27.100\r\n\r\nVideo\r\nID                                       : 1\r\nFormat                                   : AVC\r\nFormat/Info                              : Advanced Video Codec\r\nFormat profile                           :   \r\nFormat settings, CABAC                   : Yes\r\nFormat settings, ReFrames                : 4 frames\r\nCodec ID                                 : avc1\r\nCodec ID/Info                            : Advanced Video Coding\r\nDuration                                 : 1h 35mn\r\nBit rate mode                            : Constant\r\nBit rate                                 : 3 404 Kbps\r\nWidth                                    : 1 280 pixels\r\nHeight                                   : 720 pixels\r\nDisplay aspect ratio                     : 16:9\r\nFrame rate mode                          : Variable\r\nFrame rate                               : 29.970 fps\r\nMinimum frame rate                       : 29.412 fps\r\nMaximum frame rate                       : 30.303 fps\r\nStandard                                 : NTSC\r\nColor space                              : YUV\r\nChroma subsampling                       : 4:2:0\r\nBit depth                                : 8 bits\r\nScan type                                : Progressive\r\nBits/(Pixel*Frame)                       : 0.123\r\nStream size                              : 2.26 GiB (97%)\r\nColor primaries                          : BT.709-5, BT.1361, IEC 61966-2-4, SMPTE RP177\r\nTransfer characteristics                 : BT.709-5, BT.1361\r\nMatrix coefficients                      : BT.709-5, BT.1361, IEC 61966-2-4 709, SMPTE RP177\r\n\r\nAudio\r\nID                                       : 2\r\nFormat                                   : AAC\r\nFormat/Info                              : Advanced Audio Codec\r\nFormat profile                           : HE-AAC / LC\r\nCodec ID                                 : 40\r\nDuration                                 : 1h 35mn\r\nBit rate mode                            : Variable\r\nBit rate                                 : 96.0 Kbps\r\nMaximum bit rate                         : 98.3 Kbps\r\nChannel(s)                               : 2 channels\r\nChannel positions                        : Front: L R\r\nSampling rate                            : 48.0 KHz / 24.0 KHz\r\nCompression mode                         : Lossy\r\nStream size                              : 64.6 MiB (3%)\r\n\r\n\r\nThumb sheet:\r\n \nhttp://imgsparrow.co/image/981","torrent":{"xt":"urn:btih:4552fc517cb26ab413a9cdc4255f6cf008e83f2b","amp;dn":"Bellator+145+Prelims+720p+WEB-DL+x264+-%3D%7BSPARROW%7D%3D-","amp;tr":["udp%3A%2F%2Ftracker.leechers-paradise.org%3A6969","udp%3A%2F%2Fzer0day.ch%3A1337","udp%3A%2F%2Fopen.demonii.com%3A1337","udp%3A%2F%2Ftracker.coppersurfer.tk%3A6969","udp%3A%2F%2Fexodus.desync.com%3A6969"],"infoHash":"4552fc517cb26ab413a9cdc4255f6cf008e83f2b","infoHashBuffer":{"type":"Buffer","data":[69,82,252,81,124,178,106,180,19,169,205,196,37,95,108,240,8,232,63,43]},"announce":[],"urlList":[]}}